Coordinates
version=1
nRows=5
nColumns=40
inDegrees=yes

Units are S.I. units (second, meters, Newtons, ...)
Angles are in degrees.

endheader
time	pelvis_tilt	pelvis_list	pelvis_rotation	pelvis_tx	pelvis_ty	pelvis_tz	hip_flexion_r	hip_adduction_r	hip_rotation_r	knee_angle_r	knee_angle_r_beta	ankle_angle_r	subtalar_angle_r	mtp_angle_r	hip_flexion_l	hip_adduction_l	hip_rotation_l	knee_angle_l	knee_angle_l_beta	ankle_angle_l	subtalar_angle_l	mtp_angle_l	lumbar_extension	lumbar_bending	lumbar_rotation	arm_flex_r	arm_add_r	arm_rot_r	elbow_flex_r	pro_sup_r	wrist_flex_r	wrist_dev_r	arm_flex_l	arm_add_l	arm_rot_l	elbow_flex_l	pro_sup_l	wrist_flex_l	wrist_dev_l
     48.10000000	     -2.76438418	     -2.27038301	     -1.39992247	      0.96788181	      0.93640896	      0.41296314	     33.23535125	     -4.60834027	     -3.67099089	     72.49329808	     72.49329808	     -1.73586461	    -17.33251483	      4.38970997	     12.23733050	     -1.80149684	    -10.83676604	     17.33394398	     17.33394398	     10.39888169	    -13.22400350	     -2.12863839	     -9.08294891	      4.45982823	      2.32104049	      2.28550382	    -11.80554858	     -8.68169929	     27.55331062	     46.55715863	      0.00000000	      0.00000000	     19.59753149	    -12.61883693	      0.37731126	     37.76422216	     45.92702295	      0.00000000	      0.00000000
     48.11200000	     -2.71962447	     -2.31242156	     -1.46474130	      0.96748377	      0.93681954	      0.41215353	     34.05310873	     -4.62694581	     -3.86101136	     70.76011789	     70.76011789	     -1.46442729	    -17.42242076	      4.32831399	     11.39874384	     -1.74281925	    -10.95808865	     16.81982920	     16.81982920	     10.64466064	    -12.87923595	     -2.41971424	     -9.17989661	      4.71726857	      2.41412697	      0.32816809	    -11.97267141	     -8.75319717	     26.18435996	     46.60480919	      0.00000000	      0.00000000	     20.91891902	    -12.88665477	      0.07277433	     39.20355867	     45.98980098	      0.00000000	      0.00000000
     48.12400000	     -2.69193716	     -2.34573422	     -1.51242395	      0.96708277	      0.93714194	      0.41134979	     34.73769640	     -4.67471648	     -4.12133094	     68.80138799	     68.80138799	     -1.22115784	    -17.49040541	      4.22790304	     10.58339469	     -1.67218934	    -11.09214607	     16.29318595	     16.29318595	     10.80332980	    -12.59114069	     -2.82206905	     -9.30628925	      4.89439720	      2.50130940	     -1.49051057	    -12.07628873	     -8.96896264	     24.54633786	     46.68066030	      0.00000000	      0.00000000	     22.02899192	    -13.07356633	     -0.37803328	     41.26200479	     46.07296841	      0.00000000	      0.00000000
     48.13600000	     -2.63549642	     -2.39283587	     -1.57275894	      0.96669970	      0.93745286	      0.41063316	     35.24469683	     -4.66451128	     -4.37001505	     66.58246916	     66.58246916	     -0.98959781	    -17.54365379	      4.33847493	      9.73438670	     -1.61329779	    -11.18607785	     15.74846697	     15.74846697	     10.98152523	    -12.33065436	     -3.08045819	     -9.46801943	      5.13747788	      2.54330481	     -3.26736430	    -12.20345083	     -9.17894286	     23.11286894	     46.75036165	      0.00000000	      0.00000000	     23.13657186	    -13.33041363	     -0.82549789	     43.10761065	     46.15322334	      0.00000000	      0.00000000
     48.14800000	     -2.72639488	     -2.44396617	     -1.56796212	      0.96622717	      0.93745251	      0.40990972	     35.77174800	     -4.69970321	     -4.72502690	     64.10324826	     64.10324826	     -0.76404650	    -17.48377954	      4.56649154	      9.17335648	     -1.57130623	    -11.17377781	     15.40487394	     15.40487394	     11.21214963	    -12.15629452	     -3.21193527	     -9.41224709	      5.38961565	      2.14324817	     -4.89406002	    -12.30589610	     -9.28080125	     22.25213531	     46.78416627	      0.00000000	      0.00000000	     24.22323175	    -13.86683123	     -1.11922924	     44.09212156	     46.20560595	      0.00000000	      0.00000000
